<svg width="13" height="18" viewBox="0 0 13 18" fill="none" xmlns="http://www.w3.org/2000/svg">
<path d="M12.1645 0.460236H1.00014C0.769564 0.460236 0.582398 0.645779 0.582398 0.874713V16.398C0.582072 16.709 0.757162 16.994 1.03587 17.1362C1.31474 17.2781 1.65024 17.2534 1.90464 17.0719L6.58232 13.7449L11.2602 17.0717C11.5147 17.2529 11.8499 17.2775 12.1286 17.1355C12.4071 16.9935 12.5824 16.7087 12.5824 16.398V0.874713C12.5824 0.645779 12.3952 0.460236 12.1645 0.460236ZM11.7468 16.3979L6.82594 12.898C6.68039 12.7945 6.48457 12.7945 6.33918 12.898L1.4182 16.398V1.28919H11.7468V16.3979Z" fill="white"/>
</svg>
