<svg width="20" height="21" viewBox="0 0 20 21" fill="none" xmlns="http://www.w3.org/2000/svg">
<path d="M8.80757 0.921997C3.95121 0.921997 0 4.84237 0 9.66083C0 14.4796 3.95121 18.3997 8.80757 18.3997C13.6642 18.3997 17.6151 14.4796 17.6151 9.66083C17.6151 4.84237 13.6642 0.921997 8.80757 0.921997ZM8.80757 16.7864C4.84769 16.7864 1.62601 13.5898 1.62601 9.66087C1.62601 5.7319 4.84769 2.53532 8.80757 2.53532C12.7675 2.53532 15.9891 5.73186 15.9891 9.66083C15.9891 13.5898 12.7675 16.7864 8.80757 16.7864Z" fill="#AEAEAE"/>
<path d="M19.7618 19.3889L15.1005 14.764C14.7829 14.4489 14.2685 14.4489 13.9509 14.764C13.6333 15.0789 13.6333 15.5898 13.9509 15.9047L18.6122 20.5295C18.771 20.6871 18.9788 20.7659 19.187 20.7659C19.3948 20.7659 19.6029 20.6871 19.7618 20.5295C20.0794 20.2147 20.0794 19.7038 19.7618 19.3889Z" fill="#AEAEAE"/>
</svg>
